<svg width="35" height="35" viewBox="0 0 35 35" fill="none" xmlns="http://www.w3.org/2000/svg">
<path d="M32.5 0C33.8281 0 35 1.17188 35 2.57812V32.5C35 33.9062 33.8281 35 32.5 35H2.42188C1.09375 35 0 33.9062 0 32.5V2.57812C0 1.17188 1.09375 0 2.42188 0H32.5ZM10.5469 30V13.3594H5.39062V30H10.5469ZM7.96875 11.0156C9.60938 11.0156 10.9375 9.6875 10.9375 8.04688C10.9375 6.40625 9.60938 5 7.96875 5C6.25 5 4.92188 6.40625 4.92188 8.04688C4.92188 9.6875 6.25 11.0156 7.96875 11.0156ZM30 30V20.8594C30 16.4062 28.9844 12.8906 23.75 12.8906C21.25 12.8906 19.5312 14.2969 18.8281 15.625H18.75V13.3594H13.8281V30H18.9844V21.7969C18.9844 19.6094 19.375 17.5 22.1094 17.5C24.7656 17.5 24.7656 20 24.7656 21.875V30H30Z" fill="#FBCB3B"/>
</svg>
