<svg width="31" height="36" viewBox="0 0 31 36" fill="none" xmlns="http://www.w3.org/2000/svg">
<path d="M30.0659 4.43077L18.7516 17.9604L30.0659 31.5692C30.9363 32.6769 30.8571 34.2593 29.7495 35.1297C28.6418 36 27.0593 35.9209 26.189 34.8132L15.5077 21.9165L4.74725 34.8132C3.87692 35.9209 2.29451 36 1.18681 35.1297C0.0791209 34.2593 0 32.6769 0.87033 31.5692L12.1846 17.9604L0.87033 4.43077C0 3.32308 0.0791209 1.74066 1.18681 0.87033C2.29451 0 3.87692 0.0791209 4.74725 1.18681L15.5077 14.0044L26.189 1.18681C27.0593 0.0791209 28.6418 0 29.7495 0.87033C30.8571 1.74066 30.9363 3.32308 30.0659 4.43077Z" fill="#FBCB3B"/>
</svg>
