<svg width="36" height="36" viewBox="0 0 36 36" fill="none" xmlns="http://www.w3.org/2000/svg">
<path d="M18.0401 8.73942C23.0913 8.73942 27.2606 12.9087 27.2606 17.9599C27.2606 23.0913 23.0913 27.1804 18.0401 27.1804C12.9087 27.1804 8.8196 23.0913 8.8196 17.9599C8.8196 12.9087 12.9087 8.73942 18.0401 8.73942ZM18.0401 23.9733C21.3274 23.9733 23.9733 21.3274 23.9733 17.9599C23.9733 14.6726 21.3274 12.0267 18.0401 12.0267C14.6726 12.0267 12.0267 14.6726 12.0267 17.9599C12.0267 21.3274 14.7528 23.9733 18.0401 23.9733ZM29.7461 8.41871C29.7461 7.21604 28.784 6.2539 27.5813 6.2539C26.3786 6.2539 25.4165 7.21604 25.4165 8.41871C25.4165 9.62138 26.3786 10.5835 27.5813 10.5835C28.784 10.5835 29.7461 9.62138 29.7461 8.41871ZM35.8396 10.5835C36 13.5501 36 22.4499 35.8396 25.4165C35.6793 28.3029 35.0379 30.7884 32.9532 32.9532C30.8686 35.0379 28.3029 35.6793 25.4165 35.8396C22.4499 36 13.5501 36 10.5835 35.8396C7.6971 35.6793 5.21158 35.0379 3.04677 32.9532C0.962138 30.7884 0.320713 28.3029 0.160356 25.4165C0 22.4499 0 13.5501 0.160356 10.5835C0.320713 7.6971 0.962138 5.1314 3.04677 3.04677C5.21158 0.962138 7.6971 0.320713 10.5835 0.160356C13.5501 0 22.4499 0 25.4165 0.160356C28.3029 0.320713 30.8686 0.962138 32.9532 3.04677C35.0379 5.1314 35.6793 7.6971 35.8396 10.5835ZM31.9911 28.5434C32.9532 26.2183 32.7127 20.6058 32.7127 17.9599C32.7127 15.3942 32.9532 9.78174 31.9911 7.37639C31.3497 5.85301 30.147 4.57016 28.6236 4.00891C26.2183 3.04677 20.6058 3.28731 18.0401 3.28731C15.3942 3.28731 9.78174 3.04677 7.45657 4.00891C5.85301 4.65033 4.65033 5.85301 4.00891 7.37639C3.04677 9.78174 3.28731 15.3942 3.28731 17.9599C3.28731 20.6058 3.04677 26.2183 4.00891 28.5434C4.65033 30.147 5.85301 31.3497 7.45657 31.9911C9.78174 32.9532 15.3942 32.7127 18.0401 32.7127C20.6058 32.7127 26.2183 32.9532 28.6236 31.9911C30.147 31.3497 31.4298 30.147 31.9911 28.5434Z" fill="#FBCB3B"/>
</svg>
