<svg width="15" height="13" viewBox="0 0 15 13" fill="none" xmlns="http://www.w3.org/2000/svg">
<path d="M14.5676 7.25055L9.24612 12.5721C9.04656 12.7716 8.78049 12.8714 8.51441 12.8714C8.21508 12.8714 7.949 12.7716 7.74945 12.5721C7.31707 12.1729 7.31707 11.4745 7.74945 11.0754L11.2417 7.54989H1.0643C0.465632 7.54989 0 7.08426 0 6.48559C0 5.92018 0.465632 5.42129 1.0643 5.42129H11.2417L7.74945 1.92905C7.31707 1.52993 7.31707 0.831486 7.74945 0.432373C8.14856 0 8.84701 0 9.24612 0.432373L14.5676 5.75388C15 6.15299 15 6.85144 14.5676 7.25055Z" fill="#5F5633"/>
</svg>
