<svg width="18" height="16" viewBox="0 0 18 16" fill="none" xmlns="http://www.w3.org/2000/svg">
<path d="M17.4812 8.70067L11.0953 15.0865C10.8559 15.3259 10.5366 15.4457 10.2173 15.4457C9.85809 15.4457 9.5388 15.3259 9.29933 15.0865C8.78049 14.6075 8.78049 13.7694 9.29933 13.2905L13.49 9.05987H1.27716C0.558758 9.05987 0 8.50111 0 7.78271C0 7.10421 0.558758 6.50554 1.27716 6.50554H13.49L9.29933 2.31486C8.78049 1.83592 8.78049 0.997783 9.29933 0.518847C9.77827 0 10.6164 0 11.0953 0.518847L17.4812 6.90466C18 7.38359 18 8.22173 17.4812 8.70067Z" fill="#FBCB3B"/>
</svg>
